<svg width="72" height="91" viewBox="0 0 72 91" fill="none" xmlns="http://www.w3.org/2000/svg">
<path d="M4.032 77.224H9.888V79H1.848V62.272H4.032V77.224ZM17.9434 79.216C16.7114 79.216 15.5914 78.936 14.5834 78.376C13.5914 77.816 12.8074 77.024 12.2314 76C11.6714 74.96 11.3914 73.76 11.3914 72.4C11.3914 71.056 11.6794 69.872 12.2554 68.848C12.8474 67.808 13.6474 67.016 14.6554 66.472C15.6634 65.912 16.7914 65.632 18.0394 65.632C19.2874 65.632 20.4154 65.912 21.4234 66.472C22.4314 67.016 23.2234 67.8 23.7994 68.824C24.3914 69.848 24.6874 71.04 24.6874 72.4C24.6874 73.76 24.3834 74.96 23.7754 76C23.1834 77.024 22.3754 77.816 21.3514 78.376C20.3274 78.936 19.1914 79.216 17.9434 79.216ZM17.9434 77.296C18.7274 77.296 19.4634 77.112 20.1514 76.744C20.8394 76.376 21.3914 75.824 21.8074 75.088C22.2394 74.352 22.4554 73.456 22.4554 72.4C22.4554 71.344 22.2474 70.448 21.8314 69.712C21.4154 68.976 20.8714 68.432 20.1994 68.08C19.5274 67.712 18.7994 67.528 18.0154 67.528C17.2154 67.528 16.4794 67.712 15.8074 68.08C15.1514 68.432 14.6234 68.976 14.2234 69.712C13.8234 70.448 13.6234 71.344 13.6234 72.4C13.6234 73.472 13.8154 74.376 14.1994 75.112C14.5994 75.848 15.1274 76.4 15.7834 76.768C16.4394 77.12 17.1594 77.296 17.9434 77.296ZM32.9829 65.632C34.1189 65.632 35.1109 65.88 35.9589 66.376C36.8229 66.872 37.4629 67.496 37.8789 68.248V65.848H40.0869V79.288C40.0869 80.488 39.8309 81.552 39.3189 82.48C38.8069 83.424 38.0709 84.16 37.1109 84.688C36.1669 85.216 35.0629 85.48 33.7989 85.48C32.0709 85.48 30.6309 85.072 29.4789 84.256C28.3269 83.44 27.6469 82.328 27.4389 80.92H29.5989C29.8389 81.72 30.3349 82.36 31.0869 82.84C31.8389 83.336 32.7429 83.584 33.7989 83.584C34.9989 83.584 35.9749 83.208 36.7269 82.456C37.4949 81.704 37.8789 80.648 37.8789 79.288V76.528C37.4469 77.296 36.8069 77.936 35.9589 78.448C35.1109 78.96 34.1189 79.216 32.9829 79.216C31.8149 79.216 30.7509 78.928 29.7909 78.352C28.8469 77.776 28.1029 76.968 27.5589 75.928C27.0149 74.888 26.7429 73.704 26.7429 72.376C26.7429 71.032 27.0149 69.856 27.5589 68.848C28.1029 67.824 28.8469 67.032 29.7909 66.472C30.7509 65.912 31.8149 65.632 32.9829 65.632ZM37.8789 72.4C37.8789 71.408 37.6789 70.544 37.2789 69.808C36.8789 69.072 36.3349 68.512 35.6469 68.128C34.9749 67.728 34.2309 67.528 33.4149 67.528C32.5989 67.528 31.8549 67.72 31.1829 68.104C30.5109 68.488 29.9749 69.048 29.5749 69.784C29.1749 70.52 28.9749 71.384 28.9749 72.376C28.9749 73.384 29.1749 74.264 29.5749 75.016C29.9749 75.752 30.5109 76.32 31.1829 76.72C31.8549 77.104 32.5989 77.296 33.4149 77.296C34.2309 77.296 34.9749 77.104 35.6469 76.72C36.3349 76.32 36.8789 75.752 37.2789 75.016C37.6789 74.264 37.8789 73.392 37.8789 72.4ZM51.3041 63.712C50.8881 63.712 50.5361 63.568 50.2481 63.28C49.9601 62.992 49.8161 62.64 49.8161 62.224C49.8161 61.808 49.9601 61.456 50.2481 61.168C50.5361 60.88 50.8881 60.736 51.3041 60.736C51.7041 60.736 52.0401 60.88 52.3121 61.168C52.6001 61.456 52.7441 61.808 52.7441 62.224C52.7441 62.64 52.6001 62.992 52.3121 63.28C52.0401 63.568 51.7041 63.712 51.3041 63.712ZM52.3601 65.848V79H50.1761V65.848H52.3601ZM62.4904 65.608C64.0904 65.608 65.3864 66.096 66.3784 67.072C67.3704 68.032 67.8664 69.424 67.8664 71.248V79H65.7064V71.56C65.7064 70.248 65.3784 69.248 64.7224 68.56C64.0664 67.856 63.1704 67.504 62.0344 67.504C60.8824 67.504 59.9624 67.864 59.2744 68.584C58.6024 69.304 58.2664 70.352 58.2664 71.728V79H56.0824V65.848H58.2664V67.72C58.6984 67.048 59.2824 66.528 60.0184 66.16C60.7704 65.792 61.5944 65.608 62.4904 65.608Z" fill="#2B2B2B"/>
<path d="M13.0001 48.4999H59.0001C59.0001 48.4999 58.4461 39.8547 55.5001 35.4999C50.8996 28.6996 43.7104 26.4999 35.5001 26.5C26.5001 26.5001 20.4431 30 16.0001 36.9999C13.208 41.3989 13.0001 48.4999 13.0001 48.4999Z" fill="#2B2B2B"/>
<circle cx="36.5" cy="12.5" r="12.5" fill="#2B2B2B"/>
</svg>
