<svg width="74" height="84" viewBox="0 0 74 84" fill="none" xmlns="http://www.w3.org/2000/svg">
<path d="M5.68162 46.6739C4.8089 45.0789 5.02326 42.065 5.02326 42.065V3.87692C5.02326 3.87692 4.84727 1.89725 5.68168 1.24325C6.71358 0.434461 8.97376 1.90167 8.97376 1.90167V22.3125L16.2164 18.362L23.4589 22.3125V7.169L28.7262 9.14424C28.7262 9.14424 32.4855 10.5363 33.9936 12.4363C35.6625 14.539 35.9688 19.0205 35.9688 19.0205V58.5254L8.31534 49.3076C8.31534 49.3076 6.37981 47.9499 5.68162 46.6739Z" fill="#90CAF9" stroke="#90CAF9"/>
<path d="M68.2313 47.0333C69.1041 45.4383 68.8897 42.4244 68.8897 42.4244V4.23629C68.8897 4.23629 69.0657 2.25662 68.2313 1.60262C67.1994 0.793831 64.9392 1.60264 64.9392 1.60264L45.1867 9.50361C45.1867 9.50361 41.4275 10.8957 39.9194 12.7957C38.2505 14.8983 37.9442 19.3799 37.9442 19.3799V58.8848L65.5976 49.667C65.5976 49.667 67.5332 48.3093 68.2313 47.0333Z" fill="#A5D6A7" stroke="#A5D6A7"/>
<path d="M11.6074 17.7036V1.24316L20.8252 3.87683V17.7036L16.2163 15.0699L11.6074 17.7036Z" fill="#A5D6A7" stroke="#A5D6A7"/>
<path d="M13.848 74.92C13.848 75.336 13.824 75.776 13.776 76.24H3.264C3.344 77.536 3.784 78.552 4.584 79.288C5.4 80.008 6.384 80.368 7.536 80.368C8.48 80.368 9.264 80.152 9.888 79.72C10.528 79.272 10.976 78.68 11.232 77.944H13.584C13.232 79.208 12.528 80.24 11.472 81.04C10.416 81.824 9.104 82.216 7.536 82.216C6.288 82.216 5.168 81.936 4.176 81.376C3.2 80.816 2.432 80.024 1.872 79C1.312 77.96 1.032 76.76 1.032 75.4C1.032 74.04 1.304 72.848 1.848 71.824C2.392 70.8 3.152 70.016 4.128 69.472C5.12 68.912 6.256 68.632 7.536 68.632C8.784 68.632 9.888 68.904 10.848 69.448C11.808 69.992 12.544 70.744 13.056 71.704C13.584 72.648 13.848 73.72 13.848 74.92ZM11.592 74.464C11.592 73.632 11.408 72.92 11.04 72.328C10.672 71.72 10.168 71.264 9.528 70.96C8.904 70.64 8.208 70.48 7.44 70.48C6.336 70.48 5.392 70.832 4.608 71.536C3.84 72.24 3.4 73.216 3.288 74.464H11.592ZM22.0348 82.168C20.9308 82.168 19.9388 81.976 19.0588 81.592C18.1948 81.192 17.5148 80.648 17.0188 79.96C16.5228 79.256 16.2668 78.448 16.2508 77.536H18.5788C18.6588 78.32 18.9788 78.984 19.5388 79.528C20.1148 80.056 20.9468 80.32 22.0348 80.32C23.0748 80.32 23.8908 80.064 24.4828 79.552C25.0908 79.024 25.3948 78.352 25.3948 77.536C25.3948 76.896 25.2188 76.376 24.8668 75.976C24.5148 75.576 24.0748 75.272 23.5468 75.064C23.0188 74.856 22.3068 74.632 21.4108 74.392C20.3068 74.104 19.4188 73.816 18.7468 73.528C18.0908 73.24 17.5228 72.792 17.0428 72.184C16.5788 71.56 16.3468 70.728 16.3468 69.688C16.3468 68.776 16.5788 67.968 17.0428 67.264C17.5068 66.56 18.1548 66.016 18.9868 65.632C19.8348 65.248 20.8028 65.056 21.8908 65.056C23.4588 65.056 24.7388 65.448 25.7308 66.232C26.7388 67.016 27.3068 68.056 27.4348 69.352H25.0348C24.9548 68.712 24.6188 68.152 24.0268 67.672C23.4348 67.176 22.6508 66.928 21.6748 66.928C20.7628 66.928 20.0188 67.168 19.4428 67.648C18.8668 68.112 18.5788 68.768 18.5788 69.616C18.5788 70.224 18.7468 70.72 19.0828 71.104C19.4348 71.488 19.8588 71.784 20.3548 71.992C20.8668 72.184 21.5788 72.408 22.4908 72.664C23.5948 72.968 24.4828 73.272 25.1548 73.576C25.8268 73.864 26.4028 74.32 26.8828 74.944C27.3628 75.552 27.6028 76.384 27.6028 77.44C27.6028 78.256 27.3868 79.024 26.9548 79.744C26.5228 80.464 25.8828 81.048 25.0348 81.496C24.1868 81.944 23.1868 82.168 22.0348 82.168ZM37.3448 68.608C38.3368 68.608 39.2328 68.824 40.0328 69.256C40.8328 69.672 41.4568 70.304 41.9048 71.152C42.3688 72 42.6008 73.032 42.6008 74.248V82H40.4408V74.56C40.4408 73.248 40.1128 72.248 39.4568 71.56C38.8008 70.856 37.9048 70.504 36.7688 70.504C35.6168 70.504 34.6968 70.864 34.0088 71.584C33.3368 72.304 33.0008 73.352 33.0008 74.728V82H30.8168V64.24H33.0008V70.72C33.4328 70.048 34.0248 69.528 34.7768 69.16C35.5448 68.792 36.4008 68.608 37.3448 68.608ZM58.1683 74.92C58.1683 75.336 58.1443 75.776 58.0963 76.24H47.5843C47.6643 77.536 48.1043 78.552 48.9043 79.288C49.7203 80.008 50.7043 80.368 51.8563 80.368C52.8003 80.368 53.5843 80.152 54.2083 79.72C54.8483 79.272 55.2963 78.68 55.5523 77.944H57.9043C57.5523 79.208 56.8483 80.24 55.7923 81.04C54.7363 81.824 53.4243 82.216 51.8563 82.216C50.6083 82.216 49.4883 81.936 48.4963 81.376C47.5203 80.816 46.7523 80.024 46.1923 79C45.6323 77.96 45.3523 76.76 45.3523 75.4C45.3523 74.04 45.6243 72.848 46.1683 71.824C46.7123 70.8 47.4723 70.016 48.4483 69.472C49.4403 68.912 50.5763 68.632 51.8563 68.632C53.1043 68.632 54.2083 68.904 55.1683 69.448C56.1283 69.992 56.8643 70.744 57.3763 71.704C57.9043 72.648 58.1683 73.72 58.1683 74.92ZM55.9123 74.464C55.9123 73.632 55.7283 72.92 55.3603 72.328C54.9923 71.72 54.4883 71.264 53.8483 70.96C53.2243 70.64 52.5283 70.48 51.7603 70.48C50.6563 70.48 49.7123 70.832 48.9283 71.536C48.1603 72.24 47.7203 73.216 47.6083 74.464H55.9123ZM63.2351 64.24V82H61.0511V64.24H63.2351ZM72.3094 70.648H69.5494V82H67.3654V70.648H65.6614V68.848H67.3654V67.912C67.3654 66.44 67.7414 65.368 68.4934 64.696C69.2614 64.008 70.4854 63.664 72.1654 63.664V65.488C71.2054 65.488 70.5254 65.68 70.1254 66.064C69.7414 66.432 69.5494 67.048 69.5494 67.912V68.848H72.3094V70.648Z" fill="#2B2B2B"/>
</svg>
