<svg width="88" height="91" viewBox="0 0 88 91" fill="none" xmlns="http://www.w3.org/2000/svg">
<path d="M4.032 77.224H9.888V79H1.848V62.272H4.032V77.224ZM17.9434 79.216C16.7114 79.216 15.5914 78.936 14.5834 78.376C13.5914 77.816 12.8074 77.024 12.2314 76C11.6714 74.96 11.3914 73.76 11.3914 72.4C11.3914 71.056 11.6794 69.872 12.2554 68.848C12.8474 67.808 13.6474 67.016 14.6554 66.472C15.6634 65.912 16.7914 65.632 18.0394 65.632C19.2874 65.632 20.4154 65.912 21.4234 66.472C22.4314 67.016 23.2234 67.8 23.7994 68.824C24.3914 69.848 24.6874 71.04 24.6874 72.4C24.6874 73.76 24.3834 74.96 23.7754 76C23.1834 77.024 22.3754 77.816 21.3514 78.376C20.3274 78.936 19.1914 79.216 17.9434 79.216ZM17.9434 77.296C18.7274 77.296 19.4634 77.112 20.1514 76.744C20.8394 76.376 21.3914 75.824 21.8074 75.088C22.2394 74.352 22.4554 73.456 22.4554 72.4C22.4554 71.344 22.2474 70.448 21.8314 69.712C21.4154 68.976 20.8714 68.432 20.1994 68.08C19.5274 67.712 18.7994 67.528 18.0154 67.528C17.2154 67.528 16.4794 67.712 15.8074 68.08C15.1514 68.432 14.6234 68.976 14.2234 69.712C13.8234 70.448 13.6234 71.344 13.6234 72.4C13.6234 73.472 13.8154 74.376 14.1994 75.112C14.5994 75.848 15.1274 76.4 15.7834 76.768C16.4394 77.12 17.1594 77.296 17.9434 77.296ZM32.9829 65.632C34.1189 65.632 35.1109 65.88 35.9589 66.376C36.8229 66.872 37.4629 67.496 37.8789 68.248V65.848H40.0869V79.288C40.0869 80.488 39.8309 81.552 39.3189 82.48C38.8069 83.424 38.0709 84.16 37.1109 84.688C36.1669 85.216 35.0629 85.48 33.7989 85.48C32.0709 85.48 30.6309 85.072 29.4789 84.256C28.3269 83.44 27.6469 82.328 27.4389 80.92H29.5989C29.8389 81.72 30.3349 82.36 31.0869 82.84C31.8389 83.336 32.7429 83.584 33.7989 83.584C34.9989 83.584 35.9749 83.208 36.7269 82.456C37.4949 81.704 37.8789 80.648 37.8789 79.288V76.528C37.4469 77.296 36.8069 77.936 35.9589 78.448C35.1109 78.96 34.1189 79.216 32.9829 79.216C31.8149 79.216 30.7509 78.928 29.7909 78.352C28.8469 77.776 28.1029 76.968 27.5589 75.928C27.0149 74.888 26.7429 73.704 26.7429 72.376C26.7429 71.032 27.0149 69.856 27.5589 68.848C28.1029 67.824 28.8469 67.032 29.7909 66.472C30.7509 65.912 31.8149 65.632 32.9829 65.632ZM37.8789 72.4C37.8789 71.408 37.6789 70.544 37.2789 69.808C36.8789 69.072 36.3349 68.512 35.6469 68.128C34.9749 67.728 34.2309 67.528 33.4149 67.528C32.5989 67.528 31.8549 67.72 31.1829 68.104C30.5109 68.488 29.9749 69.048 29.5749 69.784C29.1749 70.52 28.9749 71.384 28.9749 72.376C28.9749 73.384 29.1749 74.264 29.5749 75.016C29.9749 75.752 30.5109 76.32 31.1829 76.72C31.8549 77.104 32.5989 77.296 33.4149 77.296C34.2309 77.296 34.9749 77.104 35.6469 76.72C36.3349 76.32 36.8789 75.752 37.2789 75.016C37.6789 74.264 37.8789 73.392 37.8789 72.4ZM55.9121 79.216C54.6801 79.216 53.5601 78.936 52.5521 78.376C51.5601 77.816 50.7761 77.024 50.2001 76C49.6401 74.96 49.3601 73.76 49.3601 72.4C49.3601 71.056 49.6481 69.872 50.2241 68.848C50.8161 67.808 51.6161 67.016 52.6241 66.472C53.6321 65.912 54.7601 65.632 56.0081 65.632C57.2561 65.632 58.3841 65.912 59.3921 66.472C60.4001 67.016 61.1921 67.8 61.7681 68.824C62.3601 69.848 62.6561 71.04 62.6561 72.4C62.6561 73.76 62.3521 74.96 61.7441 76C61.1521 77.024 60.3441 77.816 59.3201 78.376C58.2961 78.936 57.1601 79.216 55.9121 79.216ZM55.9121 77.296C56.6961 77.296 57.4321 77.112 58.1201 76.744C58.8081 76.376 59.3601 75.824 59.7761 75.088C60.2081 74.352 60.4241 73.456 60.4241 72.4C60.4241 71.344 60.2161 70.448 59.8001 69.712C59.3841 68.976 58.8401 68.432 58.1681 68.08C57.4961 67.712 56.7681 67.528 55.9841 67.528C55.1841 67.528 54.4481 67.712 53.7761 68.08C53.1201 68.432 52.5921 68.976 52.1921 69.712C51.7921 70.448 51.5921 71.344 51.5921 72.4C51.5921 73.472 51.7841 74.376 52.1681 75.112C52.5681 75.848 53.0961 76.4 53.7521 76.768C54.4081 77.12 55.1281 77.296 55.9121 77.296ZM77.1917 65.848V79H75.0077V77.056C74.5917 77.728 74.0077 78.256 73.2557 78.64C72.5197 79.008 71.7037 79.192 70.8077 79.192C69.7837 79.192 68.8637 78.984 68.0477 78.568C67.2317 78.136 66.5837 77.496 66.1037 76.648C65.6397 75.8 65.4077 74.768 65.4077 73.552V65.848H67.5677V73.264C67.5677 74.56 67.8957 75.56 68.5517 76.264C69.2077 76.952 70.1037 77.296 71.2397 77.296C72.4077 77.296 73.3277 76.936 73.9997 76.216C74.6717 75.496 75.0077 74.448 75.0077 73.072V65.848H77.1917ZM83.5433 67.648V75.4C83.5433 76.04 83.6793 76.496 83.9513 76.768C84.2233 77.024 84.6953 77.152 85.3672 77.152H86.9753V79H85.0073C83.7913 79 82.8793 78.72 82.2713 78.16C81.6633 77.6 81.3593 76.68 81.3593 75.4V67.648H79.6553V65.848H81.3593V62.536H83.5433V65.848H86.9753V67.648H83.5433Z" fill="#2B2B2B"/>
<path d="M19.0001 48.4999H65.0001C65.0001 48.4999 64.4461 39.8547 61.5001 35.4999C56.8996 28.6996 49.7104 26.4999 41.5001 26.5C32.5001 26.5001 26.4431 30 22.0001 36.9999C19.208 41.3989 19.0001 48.4999 19.0001 48.4999Z" fill="#2B2B2B"/>
<path d="M55.0001 12.5C55.0001 19.4036 49.4037 25 42.5001 25C35.5966 25 30.0001 19.4036 30.0001 12.5C30.0001 5.59644 35.5966 0 42.5001 0C49.4037 0 55.0001 5.59644 55.0001 12.5Z" fill="#2B2B2B"/>
<path d="M63 15.5C70.4558 15.5 76.5 21.5442 76.5 29C76.5 36.4558 70.4558 42.5 63 42.5C55.5442 42.5 49.5 36.4558 49.5 29C49.5 21.5442 55.5442 15.5 63 15.5Z" fill="#F99090" stroke="#FAF9F6"/>
<path d="M69.9296 33.9499C70.4763 34.4966 70.4763 35.383 69.9296 35.9297C69.3829 36.4765 68.4964 36.4765 67.9497 35.9297L56.0704 24.0504C55.5236 23.5037 55.5236 22.6172 56.0704 22.0705C56.6171 21.5238 57.5035 21.5238 58.0502 22.0705L69.9296 33.9499Z" fill="#FAF9F6"/>
<path d="M67.9497 22.0704C68.4965 21.5237 69.3829 21.5237 69.9296 22.0704C70.4764 22.6171 70.4764 23.5036 69.9296 24.0503L58.0503 35.9296C57.5035 36.4764 56.6171 36.4764 56.0704 35.9296C55.5237 35.3829 55.5237 34.4965 56.0704 33.9498L67.9497 22.0704Z" fill="#FAF9F6"/>
</svg>
