<svg width="67" height="91" viewBox="0 0 67 91" fill="none" xmlns="http://www.w3.org/2000/svg">
<path d="M13.032 67.168C13.032 68.56 12.552 69.72 11.592 70.648C10.648 71.56 9.2 72.016 7.248 72.016H4.032V79H1.848V62.272H7.248C9.136 62.272 10.568 62.728 11.544 63.64C12.536 64.552 13.032 65.728 13.032 67.168ZM7.248 70.216C8.464 70.216 9.36 69.952 9.936 69.424C10.512 68.896 10.8 68.144 10.8 67.168C10.8 65.104 9.616 64.072 7.248 64.072H4.032V70.216H7.248ZM14.9304 72.376C14.9304 71.032 15.2024 69.856 15.7464 68.848C16.2904 67.824 17.0344 67.032 17.9784 66.472C18.9384 65.912 20.0024 65.632 21.1704 65.632C22.3224 65.632 23.3224 65.88 24.1704 66.376C25.0184 66.872 25.6504 67.496 26.0664 68.248V65.848H28.2744V79H26.0664V76.552C25.6344 77.32 24.9864 77.96 24.1224 78.472C23.2744 78.968 22.2824 79.216 21.1464 79.216C19.9784 79.216 18.9224 78.928 17.9784 78.352C17.0344 77.776 16.2904 76.968 15.7464 75.928C15.2024 74.888 14.9304 73.704 14.9304 72.376ZM26.0664 72.4C26.0664 71.408 25.8664 70.544 25.4664 69.808C25.0664 69.072 24.5224 68.512 23.8344 68.128C23.1624 67.728 22.4184 67.528 21.6024 67.528C20.7864 67.528 20.0424 67.72 19.3704 68.104C18.6984 68.488 18.1624 69.048 17.7624 69.784C17.3624 70.52 17.1624 71.384 17.1624 72.376C17.1624 73.384 17.3624 74.264 17.7624 75.016C18.1624 75.752 18.6984 76.32 19.3704 76.72C20.0424 77.104 20.7864 77.296 21.6024 77.296C22.4184 77.296 23.1624 77.104 23.8344 76.72C24.5224 76.32 25.0664 75.752 25.4664 75.016C25.8664 74.264 26.0664 73.392 26.0664 72.4ZM38.3732 65.608C39.9732 65.608 41.2692 66.096 42.2612 67.072C43.2532 68.032 43.7492 69.424 43.7492 71.248V79H41.5892V71.56C41.5892 70.248 41.2612 69.248 40.6052 68.56C39.9492 67.856 39.0532 67.504 37.9172 67.504C36.7652 67.504 35.8452 67.864 35.1572 68.584C34.4852 69.304 34.1492 70.352 34.1492 71.728V79H31.9652V65.848H34.1492V67.72C34.5812 67.048 35.1652 66.528 35.9012 66.16C36.6532 65.792 37.4772 65.608 38.3732 65.608ZM59.3168 71.92C59.3168 72.336 59.2928 72.776 59.2448 73.24H48.7328C48.8128 74.536 49.2528 75.552 50.0528 76.288C50.8688 77.008 51.8528 77.368 53.0048 77.368C53.9488 77.368 54.7328 77.152 55.3568 76.72C55.9968 76.272 56.4448 75.68 56.7008 74.944H59.0528C58.7008 76.208 57.9968 77.24 56.9408 78.04C55.8848 78.824 54.5728 79.216 53.0048 79.216C51.7568 79.216 50.6368 78.936 49.6448 78.376C48.6688 77.816 47.9008 77.024 47.3408 76C46.7808 74.96 46.5008 73.76 46.5008 72.4C46.5008 71.04 46.7728 69.848 47.3168 68.824C47.8608 67.8 48.6208 67.016 49.5968 66.472C50.5888 65.912 51.7248 65.632 53.0048 65.632C54.2528 65.632 55.3568 65.904 56.3168 66.448C57.2768 66.992 58.0128 67.744 58.5248 68.704C59.0528 69.648 59.3168 70.72 59.3168 71.92ZM57.0608 71.464C57.0608 70.632 56.8768 69.92 56.5088 69.328C56.1408 68.72 55.6368 68.264 54.9968 67.96C54.3728 67.64 53.6768 67.48 52.9088 67.48C51.8048 67.48 50.8608 67.832 50.0768 68.536C49.3088 69.24 48.8688 70.216 48.7568 71.464H57.0608ZM64.3836 61.24V79H62.1996V61.24H64.3836Z" fill="#2B2B2B"/>
<path d="M10.0001 48.4999H56.0001C56.0001 48.4999 55.4461 39.8547 52.5001 35.4999C47.8996 28.6996 40.7104 26.4999 32.5001 26.5C23.5001 26.5001 17.4431 30 13.0001 36.9999C10.208 41.3989 10.0001 48.4999 10.0001 48.4999Z" fill="#2B2B2B"/>
<circle cx="33.5" cy="12.5" r="12.5" fill="#2B2B2B"/>
</svg>
