<svg width="73" height="82" viewBox="0 0 73 82" fill="none" xmlns="http://www.w3.org/2000/svg">
<path d="M4.68162 46.6739C3.8089 45.0789 4.02326 42.065 4.02326 42.065V3.87692C4.02326 3.87692 3.84727 1.89725 4.68168 1.24325C5.71358 0.434461 7.97376 1.90167 7.97376 1.90167V22.3125L15.2164 18.362L22.4589 22.3125V7.169L27.7262 9.14424C27.7262 9.14424 31.4855 10.5363 32.9936 12.4363C34.6625 14.539 34.9688 19.0205 34.9688 19.0205V58.5254L7.31534 49.3076C7.31534 49.3076 5.37981 47.9499 4.68162 46.6739Z" fill="#90CAF9" stroke="#90CAF9"/>
<path d="M67.2313 47.0333C68.1041 45.4383 67.8897 42.4244 67.8897 42.4244V4.23629C67.8897 4.23629 68.0657 2.25662 67.2313 1.60262C66.1994 0.793831 63.9392 1.60264 63.9392 1.60264L44.1867 9.50361C44.1867 9.50361 40.4275 10.8957 38.9194 12.7957C37.2505 14.8983 36.9442 19.3799 36.9442 19.3799V58.8848L64.5976 49.667C64.5976 49.667 66.5332 48.3093 67.2313 47.0333Z" fill="#A5D6A7" stroke="#A5D6A7"/>
<path d="M10.6074 17.7036V1.24316L19.8252 3.87683V17.7036L15.2163 15.0699L10.6074 17.7036Z" fill="#A5D6A7" stroke="#A5D6A7"/>
<path d="M9.375 76H8.01L2.52 67.675V76H1.155V65.53H2.52L8.01 73.84V65.53H9.375V76ZM15.2869 76.135C14.5169 76.135 13.8169 75.96 13.1869 75.61C12.5669 75.26 12.0769 74.765 11.7169 74.125C11.3669 73.475 11.1919 72.725 11.1919 71.875C11.1919 71.035 11.3719 70.295 11.7319 69.655C12.1019 69.005 12.6019 68.51 13.2319 68.17C13.8619 67.82 14.5669 67.645 15.3469 67.645C16.1269 67.645 16.8319 67.82 17.4619 68.17C18.0919 68.51 18.5869 69 18.9469 69.64C19.3169 70.28 19.5019 71.025 19.5019 71.875C19.5019 72.725 19.3119 73.475 18.9319 74.125C18.5619 74.765 18.0569 75.26 17.4169 75.61C16.7769 75.96 16.0669 76.135 15.2869 76.135ZM15.2869 74.935C15.7769 74.935 16.2369 74.82 16.6669 74.59C17.0969 74.36 17.4419 74.015 17.7019 73.555C17.9719 73.095 18.1069 72.535 18.1069 71.875C18.1069 71.215 17.9769 70.655 17.7169 70.195C17.4569 69.735 17.1169 69.395 16.6969 69.175C16.2769 68.945 15.8219 68.83 15.3319 68.83C14.8319 68.83 14.3719 68.945 13.9519 69.175C13.5419 69.395 13.2119 69.735 12.9619 70.195C12.7119 70.655 12.5869 71.215 12.5869 71.875C12.5869 72.545 12.7069 73.11 12.9469 73.57C13.1969 74.03 13.5269 74.375 13.9369 74.605C14.3469 74.825 14.7969 74.935 15.2869 74.935ZM26.0006 66.445C25.7406 66.445 25.5206 66.355 25.3406 66.175C25.1606 65.995 25.0706 65.775 25.0706 65.515C25.0706 65.255 25.1606 65.035 25.3406 64.855C25.5206 64.675 25.7406 64.585 26.0006 64.585C26.2506 64.585 26.4606 64.675 26.6306 64.855C26.8106 65.035 26.9006 65.255 26.9006 65.515C26.9006 65.775 26.8106 65.995 26.6306 66.175C26.4606 66.355 26.2506 66.445 26.0006 66.445ZM26.6606 67.78V76H25.2956V67.78H26.6606ZM38.872 67.63C39.512 67.63 40.082 67.765 40.582 68.035C41.082 68.295 41.477 68.69 41.767 69.22C42.057 69.75 42.202 70.395 42.202 71.155V76H40.852V71.35C40.852 70.53 40.647 69.905 40.237 69.475C39.837 69.035 39.292 68.815 38.602 68.815C37.892 68.815 37.327 69.045 36.907 69.505C36.487 69.955 36.277 70.61 36.277 71.47V76H34.927V71.35C34.927 70.53 34.722 69.905 34.312 69.475C33.912 69.035 33.367 68.815 32.677 68.815C31.967 68.815 31.402 69.045 30.982 69.505C30.562 69.955 30.352 70.61 30.352 71.47V76H28.987V67.78H30.352V68.965C30.622 68.535 30.982 68.205 31.432 67.975C31.892 67.745 32.397 67.63 32.947 67.63C33.637 67.63 34.247 67.785 34.777 68.095C35.307 68.405 35.702 68.86 35.962 69.46C36.192 68.88 36.572 68.43 37.102 68.11C37.632 67.79 38.222 67.63 38.872 67.63ZM43.9311 71.86C43.9311 71.02 44.1011 70.285 44.4411 69.655C44.7811 69.015 45.2461 68.52 45.8361 68.17C46.4361 67.82 47.1011 67.645 47.8311 67.645C48.5511 67.645 49.1761 67.8 49.7061 68.11C50.2361 68.42 50.6311 68.81 50.8911 69.28V67.78H52.2711V76H50.8911V74.47C50.6211 74.95 50.2161 75.35 49.6761 75.67C49.1461 75.98 48.5261 76.135 47.8161 76.135C47.0861 76.135 46.4261 75.955 45.8361 75.595C45.2461 75.235 44.7811 74.73 44.4411 74.08C44.1011 73.43 43.9311 72.69 43.9311 71.86ZM50.8911 71.875C50.8911 71.255 50.7661 70.715 50.5161 70.255C50.2661 69.795 49.9261 69.445 49.4961 69.205C49.0761 68.955 48.6111 68.83 48.1011 68.83C47.5911 68.83 47.1261 68.95 46.7061 69.19C46.2861 69.43 45.9511 69.78 45.7011 70.24C45.4511 70.7 45.3261 71.24 45.3261 71.86C45.3261 72.49 45.4511 73.04 45.7011 73.51C45.9511 73.97 46.2861 74.325 46.7061 74.575C47.1261 74.815 47.5911 74.935 48.1011 74.935C48.6111 74.935 49.0761 74.815 49.4961 74.575C49.9261 74.325 50.2661 73.97 50.5161 73.51C50.7661 73.04 50.8911 72.495 50.8911 71.875ZM57.9679 67.645C58.6779 67.645 59.2979 67.8 59.8279 68.11C60.3679 68.42 60.7679 68.81 61.0279 69.28V67.78H62.4079V76.18C62.4079 76.93 62.2479 77.595 61.9279 78.175C61.6079 78.765 61.1479 79.225 60.5479 79.555C59.9579 79.885 59.2679 80.05 58.4779 80.05C57.3979 80.05 56.4979 79.795 55.7779 79.285C55.0579 78.775 54.6329 78.08 54.5029 77.2H55.8529C56.0029 77.7 56.3129 78.1 56.7829 78.4C57.2529 78.71 57.8179 78.865 58.4779 78.865C59.2279 78.865 59.8379 78.63 60.3079 78.16C60.7879 77.69 61.0279 77.03 61.0279 76.18V74.455C60.7579 74.935 60.3579 75.335 59.8279 75.655C59.2979 75.975 58.6779 76.135 57.9679 76.135C57.2379 76.135 56.5729 75.955 55.9729 75.595C55.3829 75.235 54.9179 74.73 54.5779 74.08C54.2379 73.43 54.0679 72.69 54.0679 71.86C54.0679 71.02 54.2379 70.285 54.5779 69.655C54.9179 69.015 55.3829 68.52 55.9729 68.17C56.5729 67.82 57.2379 67.645 57.9679 67.645ZM61.0279 71.875C61.0279 71.255 60.9029 70.715 60.6529 70.255C60.4029 69.795 60.0629 69.445 59.6329 69.205C59.2129 68.955 58.7479 68.83 58.2379 68.83C57.7279 68.83 57.2629 68.95 56.8429 69.19C56.4229 69.43 56.0879 69.78 55.8379 70.24C55.5879 70.7 55.4629 71.24 55.4629 71.86C55.4629 72.49 55.5879 73.04 55.8379 73.51C56.0879 73.97 56.4229 74.325 56.8429 74.575C57.2629 74.815 57.7279 74.935 58.2379 74.935C58.7479 74.935 59.2129 74.815 59.6329 74.575C60.0629 74.325 60.4029 73.97 60.6529 73.51C60.9029 73.04 61.0279 72.495 61.0279 71.875ZM72.2146 71.575C72.2146 71.835 72.1996 72.11 72.1696 72.4H65.5996C65.6496 73.21 65.9246 73.845 66.4246 74.305C66.9346 74.755 67.5496 74.98 68.2696 74.98C68.8596 74.98 69.3496 74.845 69.7396 74.575C70.1396 74.295 70.4196 73.925 70.5796 73.465H72.0496C71.8296 74.255 71.3896 74.9 70.7296 75.4C70.0696 75.89 69.2496 76.135 68.2696 76.135C67.4896 76.135 66.7896 75.96 66.1696 75.61C65.5596 75.26 65.0796 74.765 64.7296 74.125C64.3796 73.475 64.2046 72.725 64.2046 71.875C64.2046 71.025 64.3746 70.28 64.7146 69.64C65.0546 69 65.5296 68.51 66.1396 68.17C66.7596 67.82 67.4696 67.645 68.2696 67.645C69.0496 67.645 69.7396 67.815 70.3396 68.155C70.9396 68.495 71.3996 68.965 71.7196 69.565C72.0496 70.155 72.2146 70.825 72.2146 71.575ZM70.8046 71.29C70.8046 70.77 70.6896 70.325 70.4596 69.955C70.2296 69.575 69.9146 69.29 69.5146 69.1C69.1246 68.9 68.6896 68.8 68.2096 68.8C67.5196 68.8 66.9296 69.02 66.4396 69.46C65.9596 69.9 65.6846 70.51 65.6146 71.29H70.8046Z" fill="#2B2B2B"/>
</svg>
