<svg width="75" height="101" viewBox="0 0 75 101" fill="none" xmlns="http://www.w3.org/2000/svg">
<rect width="75" height="101" fill="white"/>
<path d="M6.68162 53.6739C5.8089 52.0789 6.02326 49.065 6.02326 49.065V10.8769C6.02326 10.8769 5.84727 8.89725 6.68168 8.24325C7.71358 7.43446 9.97376 8.90167 9.97376 8.90167V29.3125L17.2164 25.362L24.4589 29.3125V14.169L29.7262 16.1442C29.7262 16.1442 33.4855 17.5363 34.9936 19.4363C36.6625 21.539 36.9688 26.0205 36.9688 26.0205V65.5254L9.31534 56.3076C9.31534 56.3076 7.37981 54.9499 6.68162 53.6739Z" fill="#90CAF9" stroke="#90CAF9"/>
<path d="M69.2313 54.0333C70.1041 52.4383 69.8897 49.4244 69.8897 49.4244V11.2363C69.8897 11.2363 70.0657 9.25662 69.2313 8.60262C68.1994 7.79383 65.9392 8.60264 65.9392 8.60264L46.1867 16.5036C46.1867 16.5036 42.4275 17.8957 40.9194 19.7957C39.2505 21.8983 38.9442 26.3799 38.9442 26.3799V65.8848L66.5976 56.667C66.5976 56.667 68.5332 55.3093 69.2313 54.0333Z" fill="#A5D6A7" stroke="#A5D6A7"/>
<path d="M12.6074 24.7036V8.24316L21.8252 10.8768V24.7036L17.2163 22.0699L12.6074 24.7036Z" fill="#A5D6A7" stroke="#A5D6A7"/>
<path d="M15.5 86H14.408L10.016 79.34V86H8.924V77.624H10.016L14.408 84.272V77.624H15.5V86ZM20.2295 86.108C19.6135 86.108 19.0535 85.968 18.5495 85.688C18.0535 85.408 17.6615 85.012 17.3735 84.5C17.0935 83.98 16.9535 83.38 16.9535 82.7C16.9535 82.028 17.0975 81.436 17.3855 80.924C17.6815 80.404 18.0815 80.008 18.5855 79.736C19.0895 79.456 19.6535 79.316 20.2775 79.316C20.9015 79.316 21.4655 79.456 21.9695 79.736C22.4735 80.008 22.8695 80.4 23.1575 80.912C23.4535 81.424 23.6015 82.02 23.6015 82.7C23.6015 83.38 23.4495 83.98 23.1455 84.5C22.8495 85.012 22.4455 85.408 21.9335 85.688C21.4215 85.968 20.8535 86.108 20.2295 86.108ZM20.2295 85.148C20.6215 85.148 20.9895 85.056 21.3335 84.872C21.6775 84.688 21.9535 84.412 22.1615 84.044C22.3775 83.676 22.4855 83.228 22.4855 82.7C22.4855 82.172 22.3815 81.724 22.1735 81.356C21.9655 80.988 21.6935 80.716 21.3575 80.54C21.0215 80.356 20.6575 80.264 20.2655 80.264C19.8655 80.264 19.4975 80.356 19.1615 80.54C18.8335 80.716 18.5695 80.988 18.3695 81.356C18.1695 81.724 18.0695 82.172 18.0695 82.7C18.0695 83.236 18.1655 83.688 18.3575 84.056C18.5575 84.424 18.8215 84.7 19.1495 84.884C19.4775 85.06 19.8375 85.148 20.2295 85.148ZM28.8005 78.356C28.5925 78.356 28.4165 78.284 28.2725 78.14C28.1285 77.996 28.0565 77.82 28.0565 77.612C28.0565 77.404 28.1285 77.228 28.2725 77.084C28.4165 76.94 28.5925 76.868 28.8005 76.868C29.0005 76.868 29.1685 76.94 29.3045 77.084C29.4485 77.228 29.5205 77.404 29.5205 77.612C29.5205 77.82 29.4485 77.996 29.3045 78.14C29.1685 78.284 29.0005 78.356 28.8005 78.356ZM29.3285 79.424V86H28.2365V79.424H29.3285ZM39.0976 79.304C39.6096 79.304 40.0656 79.412 40.4656 79.628C40.8656 79.836 41.1816 80.152 41.4136 80.576C41.6456 81 41.7616 81.516 41.7616 82.124V86H40.6816V82.28C40.6816 81.624 40.5176 81.124 40.1896 80.78C39.8696 80.428 39.4336 80.252 38.8816 80.252C38.3136 80.252 37.8616 80.436 37.5256 80.804C37.1896 81.164 37.0216 81.688 37.0216 82.376V86H35.9416V82.28C35.9416 81.624 35.7776 81.124 35.4496 80.78C35.1296 80.428 34.6936 80.252 34.1416 80.252C33.5736 80.252 33.1216 80.436 32.7856 80.804C32.4496 81.164 32.2816 81.688 32.2816 82.376V86H31.1896V79.424H32.2816V80.372C32.4976 80.028 32.7856 79.764 33.1456 79.58C33.5136 79.396 33.9176 79.304 34.3576 79.304C34.9096 79.304 35.3976 79.428 35.8216 79.676C36.2456 79.924 36.5616 80.288 36.7696 80.768C36.9536 80.304 37.2576 79.944 37.6816 79.688C38.1056 79.432 38.5776 79.304 39.0976 79.304ZM43.1449 82.688C43.1449 82.016 43.2809 81.428 43.5529 80.924C43.8249 80.412 44.1969 80.016 44.6689 79.736C45.1489 79.456 45.6809 79.316 46.2649 79.316C46.8409 79.316 47.3409 79.44 47.7649 79.688C48.1889 79.936 48.5049 80.248 48.7129 80.624V79.424H49.8169V86H48.7129V84.776C48.4969 85.16 48.1729 85.48 47.7409 85.736C47.3169 85.984 46.8209 86.108 46.2529 86.108C45.6689 86.108 45.1409 85.964 44.6689 85.676C44.1969 85.388 43.8249 84.984 43.5529 84.464C43.2809 83.944 43.1449 83.352 43.1449 82.688ZM48.7129 82.7C48.7129 82.204 48.6129 81.772 48.4129 81.404C48.2129 81.036 47.9409 80.756 47.5969 80.564C47.2609 80.364 46.8889 80.264 46.4809 80.264C46.0729 80.264 45.7009 80.36 45.3649 80.552C45.0289 80.744 44.7609 81.024 44.5609 81.392C44.3609 81.76 44.2609 82.192 44.2609 82.688C44.2609 83.192 44.3609 83.632 44.5609 84.008C44.7609 84.376 45.0289 84.66 45.3649 84.86C45.7009 85.052 46.0729 85.148 46.4809 85.148C46.8889 85.148 47.2609 85.052 47.5969 84.86C47.9409 84.66 48.2129 84.376 48.4129 84.008C48.6129 83.632 48.7129 83.196 48.7129 82.7ZM54.3743 79.316C54.9423 79.316 55.4383 79.44 55.8623 79.688C56.2943 79.936 56.6143 80.248 56.8223 80.624V79.424H57.9263V86.144C57.9263 86.744 57.7983 87.276 57.5423 87.74C57.2863 88.212 56.9183 88.58 56.4383 88.844C55.9663 89.108 55.4143 89.24 54.7823 89.24C53.9183 89.24 53.1983 89.036 52.6223 88.628C52.0463 88.22 51.7063 87.664 51.6023 86.96H52.6823C52.8023 87.36 53.0503 87.68 53.4263 87.92C53.8023 88.168 54.2543 88.292 54.7823 88.292C55.3823 88.292 55.8703 88.104 56.2463 87.728C56.6303 87.352 56.8223 86.824 56.8223 86.144V84.764C56.6063 85.148 56.2863 85.468 55.8623 85.724C55.4383 85.98 54.9423 86.108 54.3743 86.108C53.7903 86.108 53.2583 85.964 52.7783 85.676C52.3063 85.388 51.9343 84.984 51.6623 84.464C51.3903 83.944 51.2543 83.352 51.2543 82.688C51.2543 82.016 51.3903 81.428 51.6623 80.924C51.9343 80.412 52.3063 80.016 52.7783 79.736C53.2583 79.456 53.7903 79.316 54.3743 79.316ZM56.8223 82.7C56.8223 82.204 56.7223 81.772 56.5223 81.404C56.3223 81.036 56.0503 80.756 55.7063 80.564C55.3703 80.364 54.9983 80.264 54.5903 80.264C54.1823 80.264 53.8103 80.36 53.4743 80.552C53.1383 80.744 52.8703 81.024 52.6703 81.392C52.4703 81.76 52.3703 82.192 52.3703 82.688C52.3703 83.192 52.4703 83.632 52.6703 84.008C52.8703 84.376 53.1383 84.66 53.4743 84.86C53.8103 85.052 54.1823 85.148 54.5903 85.148C54.9983 85.148 55.3703 85.052 55.7063 84.86C56.0503 84.66 56.3223 84.376 56.5223 84.008C56.7223 83.632 56.8223 83.196 56.8223 82.7ZM65.7717 82.46C65.7717 82.668 65.7597 82.888 65.7357 83.12H60.4797C60.5197 83.768 60.7397 84.276 61.1397 84.644C61.5477 85.004 62.0397 85.184 62.6157 85.184C63.0877 85.184 63.4797 85.076 63.7917 84.86C64.1117 84.636 64.3357 84.34 64.4637 83.972H65.6397C65.4637 84.604 65.1117 85.12 64.5837 85.52C64.0557 85.912 63.3997 86.108 62.6157 86.108C61.9917 86.108 61.4317 85.968 60.9357 85.688C60.4477 85.408 60.0637 85.012 59.7837 84.5C59.5037 83.98 59.3637 83.38 59.3637 82.7C59.3637 82.02 59.4997 81.424 59.7717 80.912C60.0437 80.4 60.4237 80.008 60.9117 79.736C61.4077 79.456 61.9757 79.316 62.6157 79.316C63.2397 79.316 63.7917 79.452 64.2717 79.724C64.7517 79.996 65.1197 80.372 65.3757 80.852C65.6397 81.324 65.7717 81.86 65.7717 82.46ZM64.6437 82.232C64.6437 81.816 64.5517 81.46 64.3677 81.164C64.1837 80.86 63.9317 80.632 63.6117 80.48C63.2997 80.32 62.9517 80.24 62.5677 80.24C62.0157 80.24 61.5437 80.416 61.1517 80.768C60.7677 81.12 60.5477 81.608 60.4917 82.232H64.6437Z" fill="#2B2B2B"/>
</svg>
