<svg width="73" height="91" viewBox="0 0 73 91" fill="none" xmlns="http://www.w3.org/2000/svg">
<path d="M13.032 67.168C13.032 68.56 12.552 69.72 11.592 70.648C10.648 71.56 9.2 72.016 7.248 72.016H4.032V79H1.848V62.272H7.248C9.136 62.272 10.568 62.728 11.544 63.64C12.536 64.552 13.032 65.728 13.032 67.168ZM7.248 70.216C8.464 70.216 9.36 69.952 9.936 69.424C10.512 68.896 10.8 68.144 10.8 67.168C10.8 65.104 9.616 64.072 7.248 64.072H4.032V70.216H7.248ZM17.9304 67.984C18.3144 67.232 18.8584 66.648 19.5624 66.232C20.2824 65.816 21.1544 65.608 22.1784 65.608V67.864H21.6024C19.1544 67.864 17.9304 69.192 17.9304 71.848V79H15.7464V65.848H17.9304V67.984ZM30.4356 79.216C29.2036 79.216 28.0836 78.936 27.0756 78.376C26.0836 77.816 25.2996 77.024 24.7236 76C24.1636 74.96 23.8836 73.76 23.8836 72.4C23.8836 71.056 24.1716 69.872 24.7476 68.848C25.3396 67.808 26.1396 67.016 27.1476 66.472C28.1556 65.912 29.2836 65.632 30.5316 65.632C31.7796 65.632 32.9076 65.912 33.9156 66.472C34.9236 67.016 35.7156 67.8 36.2916 68.824C36.8836 69.848 37.1796 71.04 37.1796 72.4C37.1796 73.76 36.8756 74.96 36.2676 76C35.6756 77.024 34.8676 77.816 33.8436 78.376C32.8196 78.936 31.6836 79.216 30.4356 79.216ZM30.4356 77.296C31.2196 77.296 31.9556 77.112 32.6436 76.744C33.3316 76.376 33.8836 75.824 34.2996 75.088C34.7316 74.352 34.9476 73.456 34.9476 72.4C34.9476 71.344 34.7396 70.448 34.3236 69.712C33.9076 68.976 33.3636 68.432 32.6916 68.08C32.0196 67.712 31.2916 67.528 30.5076 67.528C29.7076 67.528 28.9716 67.712 28.2996 68.08C27.6436 68.432 27.1156 68.976 26.7156 69.712C26.3156 70.448 26.1156 71.344 26.1156 72.4C26.1156 73.472 26.3076 74.376 26.6916 75.112C27.0916 75.848 27.6196 76.4 28.2756 76.768C28.9316 77.12 29.6516 77.296 30.4356 77.296ZM45.4031 67.648H42.6431V79H40.4591V67.648H38.7551V65.848H40.4591V64.912C40.4591 63.44 40.8351 62.368 41.5871 61.696C42.3551 61.008 43.5791 60.664 45.2591 60.664V62.488C44.2991 62.488 43.6191 62.68 43.2191 63.064C42.8351 63.432 42.6431 64.048 42.6431 64.912V65.848H45.4031V67.648ZM49.0776 63.712C48.6616 63.712 48.3096 63.568 48.0216 63.28C47.7336 62.992 47.5896 62.64 47.5896 62.224C47.5896 61.808 47.7336 61.456 48.0216 61.168C48.3096 60.88 48.6616 60.736 49.0776 60.736C49.4776 60.736 49.8136 60.88 50.0856 61.168C50.3736 61.456 50.5176 61.808 50.5176 62.224C50.5176 62.64 50.3736 62.992 50.0856 63.28C49.8136 63.568 49.4776 63.712 49.0776 63.712ZM50.1336 65.848V79H47.9496V65.848H50.1336ZM56.0398 61.24V79H53.8558V61.24H56.0398ZM71.7621 71.92C71.7621 72.336 71.7381 72.776 71.6901 73.24H61.1781C61.2581 74.536 61.6981 75.552 62.4981 76.288C63.3141 77.008 64.2981 77.368 65.4501 77.368C66.3941 77.368 67.1781 77.152 67.8021 76.72C68.4421 76.272 68.8901 75.68 69.1461 74.944H71.4981C71.1461 76.208 70.4421 77.24 69.3861 78.04C68.3301 78.824 67.0181 79.216 65.4501 79.216C64.2021 79.216 63.0821 78.936 62.0901 78.376C61.1141 77.816 60.3461 77.024 59.7861 76C59.2261 74.96 58.9461 73.76 58.9461 72.4C58.9461 71.04 59.2181 69.848 59.7621 68.824C60.3061 67.8 61.0661 67.016 62.0421 66.472C63.0341 65.912 64.1701 65.632 65.4501 65.632C66.6981 65.632 67.8021 65.904 68.7621 66.448C69.7221 66.992 70.4581 67.744 70.9701 68.704C71.4981 69.648 71.7621 70.72 71.7621 71.92ZM69.5061 71.464C69.5061 70.632 69.3221 69.92 68.9541 69.328C68.5861 68.72 68.0821 68.264 67.4421 67.96C66.8181 67.64 66.1221 67.48 65.3541 67.48C64.2501 67.48 63.3061 67.832 62.5221 68.536C61.7541 69.24 61.3141 70.216 61.2021 71.464H69.5061Z" fill="#2B2B2B"/>
<path d="M13.0001 48.4999H59.0001C59.0001 48.4999 58.4461 39.8547 55.5001 35.4999C50.8996 28.6996 43.7104 26.4999 35.5001 26.5C26.5001 26.5001 20.4431 30 16.0001 36.9999C13.208 41.3989 13.0001 48.4999 13.0001 48.4999Z" fill="#2B2B2B"/>
<circle cx="36.5" cy="12.5" r="12.5" fill="#2B2B2B"/>
</svg>
