<svg width="58" height="49" viewBox="0 0 58 49" fill="none" xmlns="http://www.w3.org/2000/svg">
<path d="M-1.66931e-05 48.4999H46C46 48.4999 45.446 39.8547 42.5 35.4999C37.8995 28.6996 30.7103 26.4999 22.5 26.5C13.5 26.5001 7.44294 30 2.99998 36.9999C0.207896 41.3989 -1.66931e-05 48.4999 -1.66931e-05 48.4999Z" fill="#2B2B2B"/>
<path d="M36 12.5C36 19.4036 30.4036 25 23.5 25C16.5964 25 11 19.4036 11 12.5C11 5.59644 16.5964 0 23.5 0C30.4036 0 36 5.59644 36 12.5Z" fill="#2B2B2B"/>
<path d="M44 15.5C51.4558 15.5 57.5 21.5442 57.5 29C57.5 36.4558 51.4558 42.5 44 42.5C36.5442 42.5 30.5 36.4558 30.5 29C30.5 21.5442 36.5442 15.5 44 15.5Z" fill="#84AB86" stroke="#FAF9F6"/>
<path d="M45.4 37.4C45.4 38.1731 44.7732 38.8 44 38.8C43.2268 38.8 42.6 38.1731 42.6 37.4V20.6C42.6 19.8268 43.2268 19.2 44 19.2C44.7732 19.2 45.4 19.8268 45.4 20.6V37.4Z" fill="#FAF9F6"/>
<path d="M52.4001 27.5999C53.1733 27.5999 53.8001 28.2267 53.8001 28.9999C53.8001 29.7731 53.1733 30.3999 52.4001 30.3999H35.6001C34.8269 30.3999 34.2001 29.7731 34.2001 28.9999C34.2001 28.2267 34.8269 27.5999 35.6001 27.5999H52.4001Z" fill="#FAF9F6"/>
</svg>
