<svg width="91" height="91" viewBox="0 0 91 91" fill="none" xmlns="http://www.w3.org/2000/svg">
<path d="M22 48.4999H68C68 48.4999 67.446 39.8547 64.5 35.4999C59.8995 28.6996 52.7103 26.4999 44.5 26.5C35.5 26.5001 29.4429 30 25 36.9999C22.2079 41.3989 22 48.4999 22 48.4999Z" fill="#2B2B2B"/>
<path d="M7.152 79.168C6.048 79.168 5.056 78.976 4.176 78.592C3.312 78.192 2.632 77.648 2.136 76.96C1.64 76.256 1.384 75.448 1.368 74.536H3.696C3.776 75.32 4.096 75.984 4.656 76.528C5.232 77.056 6.064 77.32 7.152 77.32C8.192 77.32 9.008 77.064 9.6 76.552C10.208 76.024 10.512 75.352 10.512 74.536C10.512 73.896 10.336 73.376 9.984 72.976C9.632 72.576 9.192 72.272 8.664 72.064C8.136 71.856 7.424 71.632 6.528 71.392C5.424 71.104 4.536 70.816 3.864 70.528C3.208 70.24 2.64 69.792 2.16 69.184C1.696 68.56 1.464 67.728 1.464 66.688C1.464 65.776 1.696 64.968 2.16 64.264C2.624 63.56 3.272 63.016 4.104 62.632C4.952 62.248 5.92 62.056 7.008 62.056C8.576 62.056 9.856 62.448 10.848 63.232C11.856 64.016 12.424 65.056 12.552 66.352H10.152C10.072 65.712 9.736 65.152 9.144 64.672C8.552 64.176 7.768 63.928 6.792 63.928C5.88 63.928 5.136 64.168 4.56 64.648C3.984 65.112 3.696 65.768 3.696 66.616C3.696 67.224 3.864 67.72 4.2 68.104C4.552 68.488 4.976 68.784 5.472 68.992C5.984 69.184 6.696 69.408 7.608 69.664C8.712 69.968 9.6 70.272 10.272 70.576C10.944 70.864 11.52 71.32 12 71.944C12.48 72.552 12.72 73.384 12.72 74.44C12.72 75.256 12.504 76.024 12.072 76.744C11.64 77.464 11 78.048 10.152 78.496C9.304 78.944 8.304 79.168 7.152 79.168ZM17.0619 63.712C16.6459 63.712 16.2939 63.568 16.0059 63.28C15.7179 62.992 15.5739 62.64 15.5739 62.224C15.5739 61.808 15.7179 61.456 16.0059 61.168C16.2939 60.88 16.6459 60.736 17.0619 60.736C17.4619 60.736 17.7979 60.88 18.0699 61.168C18.3579 61.456 18.5019 61.808 18.5019 62.224C18.5019 62.64 18.3579 62.992 18.0699 63.28C17.7979 63.568 17.4619 63.712 17.0619 63.712ZM18.1179 65.848V79H15.9339V65.848H18.1179ZM27.2642 65.632C28.4002 65.632 29.3922 65.88 30.2402 66.376C31.1042 66.872 31.7442 67.496 32.1602 68.248V65.848H34.3682V79.288C34.3682 80.488 34.1122 81.552 33.6002 82.48C33.0882 83.424 32.3522 84.16 31.3922 84.688C30.4482 85.216 29.3442 85.48 28.0802 85.48C26.3522 85.48 24.9122 85.072 23.7602 84.256C22.6082 83.44 21.9282 82.328 21.7202 80.92H23.8802C24.1202 81.72 24.6162 82.36 25.3682 82.84C26.1202 83.336 27.0242 83.584 28.0802 83.584C29.2802 83.584 30.2562 83.208 31.0082 82.456C31.7762 81.704 32.1602 80.648 32.1602 79.288V76.528C31.7282 77.296 31.0882 77.936 30.2402 78.448C29.3922 78.96 28.4002 79.216 27.2642 79.216C26.0962 79.216 25.0322 78.928 24.0722 78.352C23.1282 77.776 22.3842 76.968 21.8402 75.928C21.2962 74.888 21.0242 73.704 21.0242 72.376C21.0242 71.032 21.2962 69.856 21.8402 68.848C22.3842 67.824 23.1282 67.032 24.0722 66.472C25.0322 65.912 26.0962 65.632 27.2642 65.632ZM32.1602 72.4C32.1602 71.408 31.9602 70.544 31.5602 69.808C31.1602 69.072 30.6162 68.512 29.9282 68.128C29.2562 67.728 28.5122 67.528 27.6962 67.528C26.8802 67.528 26.1362 67.72 25.4642 68.104C24.7922 68.488 24.2562 69.048 23.8562 69.784C23.4562 70.52 23.2562 71.384 23.2562 72.376C23.2562 73.384 23.4562 74.264 23.8562 75.016C24.2562 75.752 24.7922 76.32 25.4642 76.72C26.1362 77.104 26.8802 77.296 27.6962 77.296C28.5122 77.296 29.2562 77.104 29.9282 76.72C30.6162 76.32 31.1602 75.752 31.5602 75.016C31.9602 74.264 32.1602 73.392 32.1602 72.4ZM44.4669 65.608C46.0669 65.608 47.3629 66.096 48.3549 67.072C49.3469 68.032 49.8429 69.424 49.8429 71.248V79H47.6829V71.56C47.6829 70.248 47.3549 69.248 46.6989 68.56C46.0429 67.856 45.1469 67.504 44.0109 67.504C42.8589 67.504 41.9389 67.864 41.2509 68.584C40.5789 69.304 40.2429 70.352 40.2429 71.728V79H38.0589V65.848H40.2429V67.72C40.6749 67.048 41.2589 66.528 41.9949 66.16C42.7469 65.792 43.5709 65.608 44.4669 65.608ZM71.4729 65.848V79H69.2889V77.056C68.8729 77.728 68.2889 78.256 67.5369 78.64C66.8009 79.008 65.9849 79.192 65.0889 79.192C64.0649 79.192 63.1449 78.984 62.3289 78.568C61.5129 78.136 60.8649 77.496 60.3849 76.648C59.9209 75.8 59.6889 74.768 59.6889 73.552V65.848H61.8489V73.264C61.8489 74.56 62.1769 75.56 62.8329 76.264C63.4889 76.952 64.3849 77.296 65.5209 77.296C66.6889 77.296 67.6089 76.936 68.2809 76.216C68.9529 75.496 69.2889 74.448 69.2889 73.072V65.848H71.4729ZM77.3445 68.272C77.7765 67.52 78.4165 66.896 79.2645 66.4C80.1285 65.888 81.1285 65.632 82.2645 65.632C83.4325 65.632 84.4885 65.912 85.4325 66.472C86.3925 67.032 87.1445 67.824 87.6885 68.848C88.2325 69.856 88.5045 71.032 88.5045 72.376C88.5045 73.704 88.2325 74.888 87.6885 75.928C87.1445 76.968 86.3925 77.776 85.4325 78.352C84.4885 78.928 83.4325 79.216 82.2645 79.216C81.1445 79.216 80.1525 78.968 79.2885 78.472C78.4405 77.96 77.7925 77.328 77.3445 76.576V85.24H75.1605V65.848H77.3445V68.272ZM86.2725 72.376C86.2725 71.384 86.0725 70.52 85.6725 69.784C85.2725 69.048 84.7285 68.488 84.0405 68.104C83.3685 67.72 82.6245 67.528 81.8085 67.528C81.0085 67.528 80.2645 67.728 79.5765 68.128C78.9045 68.512 78.3605 69.08 77.9445 69.832C77.5445 70.568 77.3445 71.424 77.3445 72.4C77.3445 73.392 77.5445 74.264 77.9445 75.016C78.3605 75.752 78.9045 76.32 79.5765 76.72C80.2645 77.104 81.0085 77.296 81.8085 77.296C82.6245 77.296 83.3685 77.104 84.0405 76.72C84.7285 76.32 85.2725 75.752 85.6725 75.016C86.0725 74.264 86.2725 73.384 86.2725 72.376Z" fill="#2B2B2B"/>
<path d="M58 12.5C58 19.4036 52.4036 25 45.5 25C38.5964 25 33 19.4036 33 12.5C33 5.59644 38.5964 0 45.5 0C52.4036 0 58 5.59644 58 12.5Z" fill="#2B2B2B"/>
<path d="M62 23.5C67.2467 23.5 71.5 27.7533 71.5 33C71.5 38.2467 67.2467 42.5 62 42.5C56.7533 42.5 52.5 38.2467 52.5 33C52.5 27.7533 56.7533 23.5 62 23.5Z" fill="#A5D6A7" stroke="#FAF9F6"/>
<path d="M63 39C63 39.5523 62.5523 40 62 40C61.4477 40 61 39.5523 61 39V27C61 26.4477 61.4477 26 62 26C62.5523 26 63 26.4477 63 27V39Z" fill="#FAF9F6"/>
<path d="M68 32C68.5523 32 69 32.4477 69 33C69 33.5523 68.5523 34 68 34H56C55.4477 34 55 33.5523 55 33C55 32.4477 55.4477 32 56 32H68Z" fill="#FAF9F6"/>
</svg>
